<?xml version="1.0" standalone="no"?><!DOCTYPE svg PUBLIC "-//W3C//DTD SVG 1.1//EN" "http://www.w3.org/Graphics/SVG/1.1/DTD/svg11.dtd"><svg t="1660725986249" class="icon" viewBox="0 0 1024 1024" version="1.1" xmlns="http://www.w3.org/2000/svg" p-id="1479" xmlns:xlink="http://www.w3.org/1999/xlink" width="200" height="200"><defs><style type="text/css">@font-face { font-family: feedback-iconfont; src: url("//at.alicdn.com/t/font_1031158_u69w8yhxdu.woff2?t=1630033759944") format("woff2"), url("//at.alicdn.com/t/font_1031158_u69w8yhxdu.woff?t=1630033759944") format("woff"), url("//at.alicdn.com/t/font_1031158_u69w8yhxdu.ttf?t=1630033759944") format("truetype"); }
</style></defs><path d="M508.82246863 347.62989143c-87.12477286 0-157.75771089 70.63293803-157.7577109 157.7577109s70.63293803 157.75771089 157.7577109 157.7577109c87.13596116 0 157.75771089-70.63293803 157.7577109-157.7577109s-70.62174973-157.75771089-157.7577109-157.7577109z m0.0895081 171.20627621c-6.98161785 0-13.37024554-2.74118026-15.54081281-9.2976353-0.90626771-2.72999142-22.34341498-0.32446638-30.79072466-1.20835694-2.49503313-0.25733544-1.91323181-3.93834835-0.60417846-3.73695603 1.18597979 0.17901567 28.62015794-1.91323181 28.6201574-3.17753086 0-9.92419093 8.9619806-18.52813966 18.31555853-18.52813967 9.37595455 0 16.97293972 8.04452457 16.9729397 17.95752666-0.01118832 9.94656756-7.59698463 17.99109214-16.9729397 17.99109214z" fill="#F5B84B" p-id="1480"></path><path d="M639.60473016 424.08084469c-16.96175087-18.85260606-65.28483993-56.27810556-80.7585218-62.46534041-15.47368186-6.1984237-57.3074463-7.64173893-61.38005704-7.55223085-4.07261024 0.11188473-47.18186306 6.47813579-60.30596201 12.93389443-13.11291062 6.46694747-24.22308131 38.23107079-24.77131715 54.91310958-5.38166357 9.09624247-40.37926089 11.31156354-54.91310958 45.22387694-2.69642595 9.1521851 5.78444922 13.60520383 5.3816641 24.77131718-0.40278564 11.17730165-10.76332768 30.15298074-10.76332768 30.15298125s-1.87966635 11.31156354-0.25733545 23.4175095c5.38166357 14.94782265 15.33941997 31.64105027 15.33941998 31.64105027s21.67210555 25.1741028 30.72359426 41.21839766c2.79712236 3.34535872 16.65966163 13.57163836 16.65966163 13.57163835l19.37846473 11.84861106s14.03036662 14.60097964 18.06941191 16.21212219 21.77280198 3.16634254 21.77280147 3.16634307-2.96494971-10.22628015 0-15.08208504 11.44582541-11.16611332 21.53784368-12.51992048c10.09201827-1.33143051 54.9242979 8.21235194 54.9242979 8.21235195s14.25413661 4.17330665 20.72108406 1.62233089c6.46694747-2.56216406 53.07819701-35.40038295 60.75350144-46.17489844 7.68649272-10.774516 33.91231343-56.90466065 34.72907303-72.79231698 0.8055713-15.8764675-9.86824829-83.4773249-26.84118748-102.31874212z m-130.77107269 97.19441347c-6.99280615 0-14.79118413-4.45301924-16.97293971-11.0094743-0.90626771-2.72999142-21.10149256-1.04052958-29.55999111-1.92442014-2.49503313-0.25733544-0.62655562-6.9032986 0.68249825-6.71309408 1.19716861 0.19020452 25.890166-2.89781878 25.890166-4.17330666 0-9.92419093 10.57312317-16.67085047 19.94907773-16.67085046s18.75190964 10.6290658 18.75190965 20.54206788c0.01118832 9.93537923-9.37595455 19.94907773-18.74072081 19.94907776z" fill="#C9E1DB" p-id="1481"></path><path d="M470.26693197 508.63226463c-24.01049966 12.76606707-43.5232268 23.05947818-45.64903975 23.79791853-5.76207259 2.03630538-6.07535014-1.94679728-6.07535015-1.94679729l40.71491561-41.30790574c-6.76903671 6.88092143 68.14909324-48.1105074 57.9675674-40.65897299-10.17033753 7.40678064 46.44342273-23.89861493 65.68762557-30.05228484 19.27776833-6.18723487 28.69847721-1.24192241 33.52071609-4.59846944 4.81105058-3.31179325 2.53978743-11.11017072-2.7747452-16.18974505-5.3369098-5.12432865-5.39285242-1.26429956-13.89610475-3.19990801-8.48087569-1.93560897-12.75487875 4.31875737-19.64698902 6.06416132-6.9032986 1.79015826-16.27925315-1.49925786-16.27925314-1.49925735l-28.62015742 6.26555414-58.8738351 21.57140915-17.05125895 10.56193486-16.15618011 6.89210975-11.00947428 10.81926979s-1.53282333 8.55919496-5.07957436 13.31430343c-3.51318608 4.75510849-12.58705141 7.12706803-12.5870514 7.12706804-1.141226-0.26852377-7.89907386 2.64048384-11.03185143 7.47391158s-5.39285242 9.3423891-3.50199727 15.32823166c1.87966635 6.01940751 5.06838604 4.5201502 8.8612842 2.05868201 3.82646363-2.46146766 12.41922406-20.54206789 9.61091286-18.96449078-2.77474573 1.61114258 9.36476625-7.31727256 9.36476623-7.31727254l5.15789413-8.25710572 1.82372371-7.92145102 17.14076706-9.43189718 18.27080422-12.53110879 65.24008616-26.2258212 45.93994065-3.96072553 1.24192241 6.98161786-68.27216681 28.85511623-64.18836824 44.86584561-43.80293887 38.92475683s-27.54606288 28.19499514-29.36978661 36.12763498c-1.80134708 7.92145102-4.35232283 8.45849854-3.73695552 16.36876073 0.63774394 7.9550165 5.65018735 9.09624247 5.65018734 9.09624247s7.85432008-3.80408647 13.19122986-9.76755188l32.15572066-36.06050354 55.97601631-32.62563723" fill="#7E3122" p-id="1482"></path><path d="M520.64870306 485.27069725l48.28952306-21.62735178 25.43143824-4.76629681 23.42869836-1.2978645 18.40506609 6.43338148-3.35654704 5.88514615-84.03674906 30.3208081-31.62986194 19.45678452-28.96700097 16.76035805-36.70943578 34.43817263s-3.56912818 1.40974976-5.37047528 7.65292725c-1.86847802 6.27674297-1.33143051 7.47391158 1.9467973 12.68774782 3.27822778 5.21383624 10.90877789 0.26852377 10.90877788 0.26852376L480.48202328 579.13094081l71.34900177-28.17261798 33.42001969-9.61091337 32.08858969 5.12432864s1.21954524 5.30334431 7.29489593 7.23895329c6.03059636 1.90204349 10.93115504-5.31453263 10.93115451-5.31453316l2.55097575-11.09898186-4.59846944-9.94656808-9.26406983-2.13700127-22.76857725 3.71457839-15.80933657 3.60269416-34.06895246 10.57312317s-69.7490475 35.21017846-70.85670802 27.73626688c-1.16360315-7.46272275-2.57335291-8.38017929 2.97613855-16.57015406 5.51592546-8.16759763 71.58396005-48.71468587 71.58395954-48.71468588l76.35025684-28.67610005s13.02340252-2.39433672 18.17010781 0.24614662c5.16908243 2.62929501 4.68797753 4.39707663 9.26406983 2.12581296 4.55371566-2.31601747 1.09647219-4.78867395 2.55097576-11.11017071 1.42093808-6.34387392-0.58180132-13.49331911-8.26829405-15.23872357-7.74243534-1.76778162-7.20538782 2.92019592-12.93389441 1.46569239-5.75088377-1.40974976-25.33074184-6.32149675-25.33074184-6.32149675l-26.60622972 4.4865842s-15.97716391 2.84187667-20.37424053 4.32994568c-1.75659278 0.59299015-24.02168849 12.40803573-50.52722128 26.52791046" fill="#7E3122" p-id="1483"></path></svg>