<?xml version="1.0" standalone="no"?><!DOCTYPE svg PUBLIC "-//W3C//DTD SVG 1.1//EN" "http://www.w3.org/Graphics/SVG/1.1/DTD/svg11.dtd"><svg t="1660723952481" class="icon" viewBox="0 0 1024 1024" version="1.1" xmlns="http://www.w3.org/2000/svg" p-id="1255" xmlns:xlink="http://www.w3.org/1999/xlink" width="200" height="200"><defs><style type="text/css">@font-face { font-family: feedback-iconfont; src: url("//at.alicdn.com/t/font_1031158_u69w8yhxdu.woff2?t=1630033759944") format("woff2"), url("//at.alicdn.com/t/font_1031158_u69w8yhxdu.woff?t=1630033759944") format("woff"), url("//at.alicdn.com/t/font_1031158_u69w8yhxdu.ttf?t=1630033759944") format("truetype"); }
</style></defs><path d="M560.761905 24.380952z m-48.761905 76.092953a414.390857 414.390857 0 0 0 0 823.05219V997.180952a487.619048 487.619048 0 0 1 0-970.361904v73.654857z" fill="#504BFF" opacity=".1" p-id="1256"></path><path d="M512 999.619048a487.619048 487.619048 0 1 1 487.619048-487.619048 487.619048 487.619048 0 0 1-487.619048 487.619048z m0-902.095238a414.47619 414.47619 0 1 0 414.47619 414.47619A414.47619 414.47619 0 0 0 512 97.52381z" fill="#504BFF" p-id="1257"></path><path d="M816.030476 548.571429h-73.142857a36.571429 36.571429 0 0 1 0-73.142858h73.142857a36.571429 36.571429 0 0 1 0 73.142858z m-114.712381-174.32381a36.59581 36.59581 0 0 1-51.809524-51.712l51.809524-51.72419a36.571429 36.571429 0 1 1 51.687619 51.72419z m-0.609524 275.297524l51.687619 51.72419a36.571429 36.571429 0 0 1-51.687619 51.724191l-51.687619-51.724191a36.571429 36.571429 0 0 1 51.687619-51.736381zM512 316.952381a36.571429 36.571429 0 0 1-36.571429-36.571429v-73.142857a36.571429 36.571429 0 0 1 73.142858 0v73.142857a36.571429 36.571429 0 0 1-36.571429 36.571429z m-0.731429 389.327238a36.571429 36.571429 0 0 1 36.571429 36.571429v73.142857a36.571429 36.571429 0 0 1-73.142857 0v-73.142857a36.571429 36.571429 0 0 1 36.571428-36.571429zM322.56 373.699048l-51.809524-51.724191a36.59581 36.59581 0 1 1 51.809524-51.712l51.687619 51.712a36.571429 36.571429 0 0 1-51.687619 51.724191zM316.952381 511.232a36.571429 36.571429 0 0 1-36.571429 36.571429h-73.142857a36.571429 36.571429 0 0 1 0-73.142858h73.142857a36.571429 36.571429 0 0 1 36.571429 36.571429z m4.998095 137.752381a36.608 36.608 0 0 1 51.809524 51.72419l-51.809524 51.712a36.571429 36.571429 0 1 1-51.687619-51.712z" fill="#F469FD" p-id="1258"></path></svg>