<?xml version="1.0" standalone="no"?><!DOCTYPE svg PUBLIC "-//W3C//DTD SVG 1.1//EN" "http://www.w3.org/Graphics/SVG/1.1/DTD/svg11.dtd"><svg t="1660725995563" class="icon" viewBox="0 0 1024 1024" version="1.1" xmlns="http://www.w3.org/2000/svg" p-id="1626" xmlns:xlink="http://www.w3.org/1999/xlink" width="200" height="200"><defs><style type="text/css">@font-face { font-family: feedback-iconfont; src: url("//at.alicdn.com/t/font_1031158_u69w8yhxdu.woff2?t=1630033759944") format("woff2"), url("//at.alicdn.com/t/font_1031158_u69w8yhxdu.woff?t=1630033759944") format("woff"), url("//at.alicdn.com/t/font_1031158_u69w8yhxdu.ttf?t=1630033759944") format("truetype"); }
</style></defs><path d="M509.55583704 788.59777552c-148.68658035 0-270.08000761-120.98606676-270.08000762-270.08000762s120.98606676-270.08000761 270.08000762-270.08000761 270.08000761 120.98606676 270.08000761 270.08000761-121.39342726 270.08000761-270.08000761 270.08000762z m0-530.38336336c-143.39089394 0-260.30335575 116.91246182-260.30335576 260.30335574s116.91246182 260.30335575 260.30335576 260.30335576 260.30335575-116.91246182 260.30335575-260.30335576-116.91246182-260.30335575-260.30335575-260.30335574z" fill="#211D1C" p-id="1627"></path><path d="M431.34262216 749.08380759c-0.40736049 0-1.22208149 0-1.62944197-0.4073605-76.1764124-26.47843212-134.42896307-88.39722723-155.20434827-166.20308161-0.81472099-2.44416296 0.81472099-5.29568642 3.25888395-6.1104074 2.44416296-0.81472099 5.29568642 0.81472099 6.11040741 3.25888395 20.36802471 74.54697042 75.76905191 134.42896307 149.09394086 159.6853137 2.44416296 0.81472099 3.66624444 3.66624444 2.85152346 6.1104074-0.81472099 2.44416296-2.44416296 3.66624444-4.48096544 3.66624446zM652.94673097 714.0508051c-1.62944197 0-2.85152347-0.81472099-3.66624444-2.03680248-1.62944197-2.03680247-1.22208149-5.29568642 0.81472098-6.92512839 13.03553581-9.77665186 24.84899014-20.7753852 35.44036299-32.99620004 1.62944197-2.03680247 4.88832593-2.03680247 6.9251284-0.40736049s2.03680247 4.88832593 0.40736049 6.9251284c-10.99873334 12.62817532-23.62690866 24.44162965-37.06980496 34.625642-0.81472099 0.81472099-2.03680247 0.81472099-2.85152346 0.814721zM745.82492363 489.59517282c-2.44416296 0-4.48096543-1.62944197-4.88832593-4.07360494-14.66497778-101.84012354-95.72971612-183.31222237-197.16247915-197.97720014-2.44416296-0.40736049-4.48096543-2.85152347-4.07360495-5.29568643 0.40736049-2.44416296 2.85152347-4.48096543 5.29568642-4.07360495 105.91372848 15.47969877 190.23735076 100.21068156 205.30968905 206.12441004 0.40736049 2.44416296-1.62944197 4.88832593-4.07360494 5.29568642h-0.4073605z" fill="#00ABE0" p-id="1628"></path><path d="M713.64344459 465.96826416c-2.03680247 0-4.07360495-1.22208149-4.48096543-3.66624444-19.96066421-71.28808647-76.99113339-126.68911368-149.09394086-145.02033592-2.44416296-0.81472099-4.07360495-3.25888396-3.66624444-5.70304692 0.81472099-2.44416296 3.25888396-4.07360495 5.70304691-3.66624445 75.36169142 18.73858273 134.83632355 76.99113339 156.01906926 151.53810382 0.81472099 2.44416296-0.81472099 5.29568642-3.25888395 6.11040742-0.40736049 0.40736049-0.81472099 0.40736049-1.22208149 0.40736049zM408.123074 709.97720014c-0.81472099 0-1.62944197 0-2.44416297-0.40736048-42.77285189-23.21954816-76.99113339-60.69671363-96.13707662-105.09900749-1.22208149-2.44416296 0-5.29568642 2.44416297-6.5177679 2.44416296-1.22208149 5.29568642 0 6.51776791 2.44416296C336.83498753 643.17007911 369.42382706 678.6104421 410.15987646 701.01526928c2.44416296 1.22208149 3.25888396 4.07360495 2.03680247 6.51776791-0.40736049 1.62944197-2.03680247 2.44416296-4.07360493 2.44416295zM610.58123958 709.97720014c-1.62944197 0-3.25888396-0.81472099-4.07360494-2.44416295-1.22208149-2.44416296-0.40736049-5.29568642 2.03680247-6.51776791 35.03300249-19.14594322 63.54823709-47.25381732 82.69418031-82.28681982 1.22208149-2.44416296 4.07360495-3.25888396 6.5177679-2.03680246 2.44416296 1.22208149 3.25888396 4.07360495 2.03680248 6.51776791-19.96066421 36.25508398-50.10534077 65.99240005-86.76778526 85.95306425-0.81472099 0.81472099-1.62944197 0.81472099-2.44416296 0.81472098zM403.23474807 675.75891864c-0.81472099 0-2.03680247-0.40736049-2.85152346-0.81472098-22.40482718-15.47969877-41.5507704-36.25508398-54.99366671-59.47463214-1.22208149-2.44416296-0.40736049-5.29568642 1.62944197-6.51776791 2.44416296-1.22208149 5.29568642-0.40736049 6.5177679 1.62944197 13.03553581 21.99746668 31.36675805 41.5507704 52.54950375 56.62310869 2.03680247 1.62944197 2.85152347 4.48096543 1.22208148 6.5177679-0.81472099 1.22208149-2.44416296 2.03680247-4.07360493 2.03680247z" fill="#00ABE0" p-id="1629"></path><path d="M681.46196556 453.34008884c-2.03680247 0-3.66624444-1.22208149-4.48096543-2.85152345-17.92386174-44.40229386-53.77158522-80.25001734-97.7665186-98.58123958-2.44416296-1.22208149-3.66624444-3.66624444-2.44416297-6.11040743 1.22208149-2.44416296 3.66624444-3.66624444 6.11040742-2.44416295 46.43909632 19.55330372 84.32362228 57.03046918 103.06220502 103.87692601 0.81472099 2.44416296 0 5.29568642-2.44416297 6.1104074h-2.03680247z" fill="#00ABE0" p-id="1630"></path><path d="M509.55583704 629.31982231c-61.10407412 0-110.8020544-49.69798028-110.80205441-110.80205441s49.69798028-110.8020544 110.80205441-110.8020544 110.8020544 49.69798028 110.8020544 110.8020544-49.69798028 110.8020544-110.8020544 110.80205441z m0-211.82745695c-55.80838769 0-101.43276305 45.21701484-101.43276304 101.43276304 0 55.80838769 45.21701484 101.43276305 101.43276304 101.43276304 55.80838769 0 101.43276305-45.21701484 101.43276304-101.43276304-0.40736049-56.21574819-45.62437535-101.43276305-101.43276304-101.43276303z" fill="#211D1C" p-id="1631"></path><path d="M507.92639505 589.80585437c-22.40482718 0-43.18021238-10.18401235-56.62310867-28.10787409-1.62944197-2.03680247-1.22208149-5.29568642 0.81472097-6.92512839 2.03680247-1.62944197 5.29568642-1.22208149 6.92512842 0.81472098 11.81345433 15.47969877 29.73731607 24.44162965 48.88325928 24.44162965 19.55330372 0 37.47716546-8.96193087 48.88325931-24.44162965 1.62944197-2.03680247 4.48096543-2.44416296 6.92512839-0.81472098 2.03680247 1.62944197 2.44416296 4.48096543 0.814721 6.92512839-13.44289631 17.92386174-34.2182815 28.1078741-56.6231087 28.10787409zM461.07993823 536.03426916c-1.22208149 0-2.03680247-0.40736049-2.85152345-1.22208148l-1.22208149-1.22208149c-0.81472099-0.81472099-0.81472099-2.03680247-0.81472098-2.85152346 0-1.22208149 0.81472099-2.03680247 1.62944196-2.44416296 2.85152347-1.62944197 4.48096543-4.48096543 4.88832594-7.73984939 0.40736049-2.03680247 0-3.66624444-0.81472098-4.88832594-0.81472099-0.81472099-1.62944197-1.62944197-2.85152346-1.62944197h-0.81472099c-1.62944197 0-2.44416296 0.81472099-4.48096544 4.07360494l-3.25888395 5.29568642c-1.62944197 2.44416296-4.88832593 8.14720987-11.81345433 8.14720989h-1.62944199c-3.66624444-0.40736049-6.5177679-2.44416296-8.55457036-5.29568643-1.62944197-2.85152347-2.44416296-6.5177679-2.03680247-10.18401234 0.40736049-4.88832593 3.25888396-9.36929137 6.92512839-12.22081483 0.81472099-0.40736049 1.62944197-0.81472099 2.03680247-0.81472099 1.22208149 0 2.03680247 0.40736049 2.85152346 1.22208148l1.22208149 1.22208149c0.81472099 0.81472099 0.81472099 1.62944197 0.81472098 2.85152346 0 1.22208149-0.81472099 2.03680247-1.62944197 2.44416295-2.03680247 1.22208149-3.25888396 3.25888396-3.25888396 5.70304692 0 1.62944197 0 2.85152347 0.81472099 4.07360495 0.40736049 0.81472099 1.22208149 1.22208149 2.03680247 1.22208147h0.4073605c1.62944197 0 2.44416296-1.22208149 4.07360494-3.66624444l3.25888395-5.29568642c1.62944197-2.85152347 5.29568642-8.55457038 12.22081483-8.55457038h1.62944197c3.66624444 0.40736049 6.9251284 2.44416296 9.36929136 5.70304692 2.03680247 2.85152347 2.85152347 6.9251284 2.44416297 10.99873334-0.81472099 6.11040741-3.66624444 10.99873334-8.55457039 14.25761729-0.81472099 0.81472099-1.22208149 0.81472099-2.03680246 0.814721zM470.85659008 500.18654567c-6.11040741 0-12.22081482-2.85152347-17.51650124-8.14720988-9.36929137-9.77665186-10.18401235-21.59010619-2.44416296-29.32995558 3.25888396-3.25888396 7.73984939-4.88832593 12.22081482-4.88832593 5.70304692 0 11.81345433 2.85152347 17.10914075 8.14720988 9.36929137 9.77665186 10.59137286 21.99746668 2.44416297 29.32995558-3.25888396 3.25888396-7.3324889 4.88832593-11.81345434 4.88832593zM463.11674069 466.78298516c-2.03680247 0-4.07360495 0.81472099-5.7030469 2.44416295-4.88832593 4.88832593-1.62944197 11.40609383 2.85152346 16.29441977 3.66624444 3.66624444 7.3324889 5.70304692 10.99873335 5.70304692 2.03680247 0 4.07360495-0.81472099 5.70304691-2.44416296 4.07360495-4.07360495 2.85152347-10.59137286-2.85152347-16.29441978-4.07360495-4.07360495-7.73984939-5.70304692-10.99873335-5.7030469zM496.52030123 480.22588145c-0.81472099 0-2.03680247-0.40736049-2.44416297-1.22208147-0.81472099-0.81472099-1.22208149-1.62944197-1.22208148-2.44416297l-0.814721-37.06980496c0-0.81472099 0.40736049-2.03680247 1.22208149-2.44416298 0.81472099-0.81472099 1.62944197-1.22208149 2.44416296-1.22208147h2.03680247c1.22208149 0 2.44416296 0.81472099 3.25888396 1.62944198l14.2576173 22.40482716-0.4073605-20.77538519c0-0.81472099 0.40736049-2.03680247 1.22208149-2.85152346 0.81472099-0.81472099 1.62944197-1.22208149 2.44416295-1.22208148h1.62944197c2.03680247 0 3.66624444 1.62944197 3.66624446 3.66624444l0.81472099 37.06980497c0 0.81472099-0.40736049 2.03680247-1.22208149 2.85152345-0.81472099 0.81472099-1.62944197 1.22208149-2.44416296 1.2220815h-2.03680247c-1.22208149 0-2.44416296-0.81472099-3.25888396-1.62944199l-14.2576173-22.40482717 0.40736051 20.7753852c0 2.03680247-1.62944197 3.66624444-3.66624445 3.66624444h-1.62944197zM547.44036299 500.18654567c-4.07360495 0-8.14720987-1.62944197-11.81345433-4.88832593-8.96193087-7.3324889-8.55457038-19.55330372 0-29.73731607 4.88832593-6.11040741 11.40609383-9.36929137 17.51650126-9.36929136 4.48096543 0 8.55457038 1.62944197 12.22081482 4.88832592 3.66624444 3.25888396 5.70304692 7.3324889 6.1104074 12.22081484 0 2.03680247-1.22208149 3.66624444-3.25888395 4.07360493l-1.62944198 0.4073605h-0.40736048c-0.81472099 0-1.62944197-0.40736049-2.44416298-0.814721-0.81472099-0.81472099-1.22208149-1.62944197-1.22208147-2.85152346 0-2.44416296-0.81472099-4.48096543-2.85152346-5.70304691-2.03680247-1.62944197-4.07360495-2.44416296-6.11040742-2.44416297-3.66624444 0-7.3324889 2.03680247-10.59137285 6.11040741-2.03680247 2.44416296-8.55457038 10.99873334-1.22208148 17.10914075 1.62944197 1.22208149 3.25888396 2.03680247 4.48096543 2.44416297l4.48096543-4.88832592-4.07360493-3.66624445c-1.62944197-1.22208149-1.62944197-3.66624444-0.4073605-5.29568642l0.81472099-1.22208149c0.81472099-0.81472099 1.62944197-1.22208149 2.44416297-1.22208149h0.4073605c0.81472099 0 1.62944197 0.40736049 2.44416296 0.814721l8.55457038 6.9251284c0.81472099 0.81472099 1.22208149 1.62944197 1.22208148 2.44416296 0 0.81472099-0.40736049 2.03680247-0.81472099 2.85152346l-9.36929136 10.99873334c-0.40736049 0.81472099-1.62944197 1.22208149-2.44416297 1.22208149-0.81472099-0.40736049-1.62944197-0.40736049-2.03680247-0.4073605zM560.4758988 536.03426916c-6.5177679 0-11.81345433-4.88832593-13.44289631-12.22081483-1.22208149-5.70304692 0-11.40609383 3.66624444-16.29441976 0.81472099-0.81472099 2.03680247-1.62944197 2.85152347-1.62944198 0.81472099 0 1.22208149 0 2.03680247 0.40736049l1.62944197 0.81472099c0.81472099 0.40736049 1.62944197 1.62944197 1.62944199 2.44416297 0 1.22208149 0 2.03680247-0.81472099 2.85152345-2.03680247 2.44416296-2.85152347 5.70304692-2.03680247 8.96193088 0.81472099 3.25888396 2.44416296 5.29568642 4.48096543 5.29568642h0.81472099c2.03680247-0.40736049 2.85152347-1.22208149 3.66624444-5.70304692l1.22208149-6.11040741c0.81472099-3.25888396 2.03680247-10.18401235 10.18401236-12.22081483 0.81472099 0 1.62944197-0.40736049 2.44416295-0.40736048 6.11040741 0 10.99873334 4.48096543 12.62817533 11.40609383 0.81472099 4.88832593 0 9.77665186-2.85152346 13.85025679-0.81472099 0.81472099-2.03680247 1.62944197-2.85152346 1.62944199-0.81472099 0-1.22208149 0-2.03680247-0.4073605l-1.22208149-0.40736049c-0.81472099-0.40736049-1.62944197-1.22208149-1.62944197-2.44416297-0.40736049-1.22208149 0-2.03680247 0.81472099-2.85152346 1.22208149-2.03680247 2.03680247-4.07360495 1.22208148-6.51776791-0.40736049-0.81472099-1.22208149-4.07360495-3.66624445-4.07360494h-0.81472098c-2.03680247 0.40736049-2.44416296 1.62944197-3.25888396 4.88832593l-1.22208147 6.11040741c-0.81472099 3.66624444-2.44416296 10.59137286-10.59137286 12.62817533h-2.85152346z" fill="#00ABE0" p-id="1632"></path><path d="M509.55583704 536.84899014c-9.77665186 0-17.92386174-8.14720987-17.92386175-17.92386174s8.14720987-17.92386174 17.92386175-17.92386174c9.77665186 0 17.92386174 8.14720987 17.92386173 17.92386174s-8.14720987 17.92386174-17.92386173 17.92386174z m0-26.47843212c-4.48096543 0-8.55457038 3.66624444-8.55457038 8.55457038 0 4.48096543 3.66624444 8.55457038 8.55457038 8.55457037 4.48096543 0 8.55457038-3.66624444 8.55457037-8.55457037-0.40736049-4.88832593-4.07360495-8.55457038-8.55457037-8.55457037z" fill="#211D1C" p-id="1633"></path></svg>